<svg width="1742" height="1004" xmlns="http://www.w3.org/2000/svg" xmlns:xlink="http://www.w3.org/1999/xlink" overflow="hidden"><defs><clipPath id="clip0"><rect x="1117" y="244" width="1742" height="1004"/></clipPath><clipPath id="clip1"><rect x="1117" y="244" width="1740" height="1001"/></clipPath><clipPath id="clip2"><rect x="1117" y="244" width="1740" height="1001"/></clipPath><clipPath id="clip3"><rect x="1227" y="522" width="1583" height="516"/></clipPath><clipPath id="clip4"><rect x="1227" y="522" width="1583" height="516"/></clipPath><clipPath id="clip5"><rect x="1117" y="244" width="1740" height="1001"/></clipPath><clipPath id="clip6"><rect x="1117" y="244" width="1740" height="1001"/></clipPath><clipPath id="clip7"><rect x="1117" y="244" width="1740" height="1001"/></clipPath><clipPath id="clip8"><rect x="1117" y="244" width="1740" height="1001"/></clipPath><clipPath id="clip9"><rect x="1117" y="244" width="1740" height="1001"/></clipPath><clipPath id="clip10"><rect x="1117" y="244" width="1740" height="1001"/></clipPath><clipPath id="clip11"><rect x="1117" y="244" width="1740" height="1001"/></clipPath><clipPath id="clip12"><rect x="1117" y="244" width="1740" height="1001"/></clipPath><clipPath id="clip13"><rect x="1117" y="244" width="1740" height="1001"/></clipPath><clipPath id="clip14"><rect x="1117" y="244" width="1740" height="1001"/></clipPath><clipPath id="clip15"><rect x="1117" y="244" width="1740" height="1001"/></clipPath><clipPath id="clip16"><rect x="1117" y="244" width="1740" height="1001"/></clipPath><clipPath id="clip17"><rect x="1117" y="244" width="1740" height="1001"/></clipPath><clipPath id="clip18"><rect x="1117" y="244" width="1740" height="1001"/></clipPath><clipPath id="clip19"><rect x="1117" y="244" width="1740" height="1001"/></clipPath><clipPath id="clip20"><rect x="1117" y="244" width="1740" height="1001"/></clipPath><clipPath id="clip21"><rect x="1117" y="244" width="1740" height="1001"/></clipPath><clipPath id="clip22"><rect x="1117" y="244" width="1740" height="1001"/></clipPath><clipPath id="clip23"><rect x="1117" y="244" width="1740" height="1001"/></clipPath><clipPath id="clip24"><rect x="1117" y="244" width="1740" height="1001"/></clipPath><clipPath id="clip25"><rect x="1117" y="244" width="1740" height="1001"/></clipPath><clipPath id="clip26"><rect x="1117" y="244" width="1740" height="1001"/></clipPath><clipPath id="clip27"><rect x="1117" y="244" width="1740" height="1001"/></clipPath><clipPath id="clip28"><rect x="1117" y="244" width="1740" height="1001"/></clipPath><clipPath id="clip29"><rect x="1117" y="244" width="1740" height="1001"/></clipPath><clipPath id="clip30"><rect x="1117" y="244" width="1740" height="1001"/></clipPath><clipPath id="clip31"><rect x="1117" y="244" width="1740" height="1001"/></clipPath><clipPath id="clip32"><rect x="1117" y="244" width="1740" height="1001"/></clipPath><clipPath id="clip33"><rect x="1117" y="244" width="1740" height="1001"/></clipPath><clipPath id="clip34"><rect x="1117" y="244" width="1740" height="1001"/></clipPath><clipPath id="clip35"><rect x="1117" y="244" width="1740" height="1001"/></clipPath></defs><g clip-path="url(#clip0)" transform="translate(-1117 -244)"><rect x="1118" y="245" width="1739" height="1001" fill="#FFFFFF"/><g clip-path="url(#clip1)"><path d="M1227.5 949.531 2806.5 949.531M1227.5 863.529 2806.5 863.529M1227.5 778.526 2806.5 778.526M1227.5 692.523 2806.5 692.523M1227.5 607.52 2806.5 607.52M1227.5 522.5 2806.5 522.5" stroke="#D9D9D9" stroke-width="3.4375" stroke-linejoin="round" stroke-miterlimit="10" fill="none"/></g><g clip-path="url(#clip2)"><path d="M1227.5 1034.5 2806.5 1034.5" stroke="#D9D9D9" stroke-width="3.4375" stroke-linejoin="round" stroke-miterlimit="10" fill="none" fill-rule="evenodd"/></g><g clip-path="url(#clip3)"><path d="M1341 744.024 1566.05 693 1792.06 710.023 2017.07 761.025 2243.07 813 2468.08 778.026 2694 710.023" stroke="#4472C4" stroke-width="10.3125" stroke-linecap="round" stroke-linejoin="round" stroke-miterlimit="10" fill="none"/></g><g clip-path="url(#clip4)"><path d="M1341 608.02 1566.05 556 1792.06 590.019 2017.07 556 2243.07 590.019 2468.08 590.019 2694 676" stroke="#ED7D31" stroke-width="10.3125" stroke-linecap="round" stroke-linejoin="round" stroke-miterlimit="10" fill="none"/></g><g clip-path="url(#clip5)"><text fill="#595959" font-family="Calibri,Calibri_MSFontService,sans-serif" font-weight="400" font-size="41" transform="matrix(1 0 0 1 1168.57 1046)">0</text></g><g clip-path="url(#clip6)"><text fill="#595959" font-family="Calibri,Calibri_MSFontService,sans-serif" font-weight="400" font-size="41" transform="matrix(1 0 0 1 1168.57 961)">5</text></g><g clip-path="url(#clip7)"><text fill="#595959" font-family="Calibri,Calibri_MSFontService,sans-serif" font-weight="400" font-size="41" transform="matrix(1 0 0 1 1147.67 875)">10</text></g><g clip-path="url(#clip8)"><text fill="#595959" font-family="Calibri,Calibri_MSFontService,sans-serif" font-weight="400" font-size="41" transform="matrix(1 0 0 1 1147.67 790)">15</text></g><g clip-path="url(#clip9)"><text fill="#595959" font-family="Calibri,Calibri_MSFontService,sans-serif" font-weight="400" font-size="41" transform="matrix(1 0 0 1 1147.67 705)">20</text></g><g clip-path="url(#clip10)"><text fill="#595959" font-family="Calibri,Calibri_MSFontService,sans-serif" font-weight="400" font-size="41" transform="matrix(1 0 0 1 1147.67 619)">25</text></g><g clip-path="url(#clip11)"><text fill="#595959" font-family="Calibri,Calibri_MSFontService,sans-serif" font-weight="400" font-size="41" transform="matrix(1 0 0 1 1147.67 534)">30</text></g><g clip-path="url(#clip12)"><text fill="#595959" font-family="Calibri,Calibri_MSFontService,sans-serif" font-weight="400" font-size="41" transform="matrix(1 0 0 1 1319.63 1100)">10</text></g><g clip-path="url(#clip13)"><text fill="#595959" font-family="Calibri,Calibri_MSFontService,sans-serif" font-weight="400" font-size="41" transform="matrix(1 0 0 1 1545.21 1100)">11</text></g><g clip-path="url(#clip14)"><text fill="#595959" font-family="Calibri,Calibri_MSFontService,sans-serif" font-weight="400" font-size="41" transform="matrix(1 0 0 1 1770.8 1100)">12</text></g><g clip-path="url(#clip15)"><text fill="#595959" font-family="Calibri,Calibri_MSFontService,sans-serif" font-weight="400" font-size="41" transform="matrix(1 0 0 1 1996.38 1100)">13</text></g><g clip-path="url(#clip16)"><text fill="#595959" font-family="Calibri,Calibri_MSFontService,sans-serif" font-weight="400" font-size="41" transform="matrix(1 0 0 1 2221.97 1100)">14</text></g><g clip-path="url(#clip17)"><text fill="#595959" font-family="Calibri,Calibri_MSFontService,sans-serif" font-weight="400" font-size="41" transform="matrix(1 0 0 1 2447.55 1100)">15</text></g><g clip-path="url(#clip18)"><text fill="#595959" font-family="Calibri,Calibri_MSFontService,sans-serif" font-weight="400" font-size="41" transform="matrix(1 0 0 1 2673.14 1100)">16</text></g><g clip-path="url(#clip19)"><text fill="#595959" font-family="Calibri,Calibri_MSFontService,sans-serif" font-weight="400" font-size="64" transform="matrix(1 0 0 1 1297.84 392)">2020</text></g><g clip-path="url(#clip20)"><text fill="#595959" font-family="Yu Gothic,Yu Gothic_MSFontService,sans-serif" font-weight="400" font-size="64" transform="matrix(1 0 0 1 1427.92 392)">年</text></g><g clip-path="url(#clip21)"><text fill="#595959" font-family="Calibri,Calibri_MSFontService,sans-serif" font-weight="400" font-size="64" transform="matrix(1 0 0 1 1492.09 392)">5</text></g><g clip-path="url(#clip22)"><text fill="#595959" font-family="Yu Gothic,Yu Gothic_MSFontService,sans-serif" font-weight="400" font-size="64" transform="matrix(1 0 0 1 1524.6 392)">月</text></g><g clip-path="url(#clip23)"><text fill="#595959" font-family="Calibri,Calibri_MSFontService,sans-serif" font-weight="400" font-size="64" transform="matrix(1 0 0 1 1588.77 392)">10</text></g><g clip-path="url(#clip24)"><text fill="#595959" font-family="Yu Gothic,Yu Gothic_MSFontService,sans-serif" font-weight="400" font-size="64" transform="matrix(1 0 0 1 1653.81 392)">日から</text></g><g clip-path="url(#clip25)"><text fill="#595959" font-family="Calibri,Calibri_MSFontService,sans-serif" font-weight="400" font-size="64" transform="matrix(1 0 0 1 1846.31 392)">5</text></g><g clip-path="url(#clip26)"><text fill="#595959" font-family="Yu Gothic,Yu Gothic_MSFontService,sans-serif" font-weight="400" font-size="64" transform="matrix(1 0 0 1 1878.83 392)">月</text></g><g clip-path="url(#clip27)"><text fill="#595959" font-family="Calibri,Calibri_MSFontService,sans-serif" font-weight="400" font-size="64" transform="matrix(1 0 0 1 1942.99 392)">16</text></g><g clip-path="url(#clip28)"><text fill="#595959" font-family="Yu Gothic,Yu Gothic_MSFontService,sans-serif" font-weight="400" font-size="64" transform="matrix(1 0 0 1 2008.03 392)">日の東京の気温</text></g><g clip-path="url(#clip29)"><text fill="#595959" font-family="Calibri,Calibri_MSFontService,sans-serif" font-weight="400" font-size="64" transform="matrix(1 0 0 1 2457.2 392)">(</text></g><g clip-path="url(#clip30)"><text fill="#595959" font-family="Yu Gothic,Yu Gothic_MSFontService,sans-serif" font-weight="400" font-size="64" transform="matrix(1 0 0 1 2476.65 392)">摂氏</text></g><g clip-path="url(#clip31)"><text fill="#595959" font-family="Calibri,Calibri_MSFontService,sans-serif" font-weight="400" font-size="64" transform="matrix(1 0 0 1 2604.99 392)">)</text></g><g clip-path="url(#clip32)"><path d="M1797 1180 1885 1180" stroke="#4472C4" stroke-width="10.3125" stroke-linecap="round" stroke-linejoin="round" stroke-miterlimit="10" fill="none" fill-rule="evenodd"/></g><g clip-path="url(#clip33)"><text fill="#595959" font-family="Yu Gothic,Yu Gothic_MSFontService,sans-serif" font-weight="400" font-size="41" transform="matrix(1 0 0 1 1893.95 1192)">最低</text></g><g clip-path="url(#clip34)"><path d="M2015 1180 2103 1180" stroke="#ED7D31" stroke-width="10.3125" stroke-linecap="round" stroke-linejoin="round" stroke-miterlimit="10" fill="none" fill-rule="evenodd"/></g><g clip-path="url(#clip35)"><text fill="#595959" font-family="Yu Gothic,Yu Gothic_MSFontService,sans-serif" font-weight="400" font-size="41" transform="matrix(1 0 0 1 2112.11 1192)">最高</text></g><rect x="1118.5" y="245.5" width="1739" height="1001" stroke="#D9D9D9" stroke-width="3.4375" stroke-linejoin="round" stroke-miterlimit="10" fill="none"/></g></svg>